<svg width="318" height="84" viewBox="0 0 318 84" fill="none" xmlns="http://www.w3.org/2000/svg">
<path d="M34.9889 3.46179C34.9889 1.95939 36.2052 0.741455 37.7056 0.741455H59.4391C60.9395 0.741455 62.1558 1.95939 62.1558 3.46179V11.6228C62.1558 13.1252 60.9395 14.3431 59.4391 14.3431H39.9695L27.7445 26.5847V43.8135L39.9695 56.055H59.4391C60.9395 56.055 62.1558 57.2729 62.1558 58.7753V80.5381C62.1558 82.0405 60.9395 83.2584 59.4391 83.2584H37.7056C36.2052 83.2584 34.9889 82.0405 34.9889 80.5381V61.0423L22.7639 48.8008H3.29432C1.79394 48.8008 0.577637 47.5828 0.577637 46.0804V24.3177C0.577637 22.8153 1.79394 21.5974 3.29432 21.5974H22.7639L34.9889 9.35586V3.46179Z" fill="#EC4D37"/>
<path d="M3.29432 56.055C1.79394 56.055 0.577637 57.2729 0.577637 58.7753V80.5381C0.577637 82.0405 1.79394 83.2584 3.29432 83.2584H25.0278C26.5282 83.2584 27.7445 82.0405 27.7445 80.5381V58.7753C27.7445 57.2729 26.5282 56.055 25.0278 56.055H3.29432Z" fill="#EC4D37"/>
<path d="M91.5496 63.8313C91.5496 65.5691 91.1968 67.2255 90.4912 68.8004C89.8399 70.3209 88.9444 71.6515 87.8046 72.7919C86.6648 73.9323 85.308 74.8284 83.734 75.4801C82.2143 76.1318 80.6132 76.4576 78.9307 76.4576C77.1397 76.4576 75.4571 76.1318 73.8832 75.4801C72.3635 74.8284 71.0338 73.9323 69.894 72.7919C68.7542 71.6515 67.8587 70.3209 67.2074 68.8004C66.5561 67.2255 66.2305 65.5691 66.2305 63.8313V36.1349C66.2305 34.397 66.5561 32.7678 67.2074 31.2472C67.8587 29.6724 68.7542 28.3147 69.894 27.1742C71.0338 26.0338 72.3635 25.1377 73.8832 24.4861C75.4571 23.7801 77.1397 23.4271 78.9307 23.4271C80.6132 23.4271 82.2143 23.7801 83.734 24.4861C85.308 25.1377 86.6648 26.0338 87.8046 27.1742C88.9444 28.3147 89.8399 29.6724 90.4912 31.2472C91.1968 32.7678 91.5496 34.397 91.5496 36.1349V63.8313ZM84.2225 36.1349C84.2225 34.6686 83.6797 33.4195 82.5943 32.3877C81.563 31.3016 80.3419 30.7585 78.9307 30.7585C77.411 30.7585 76.1356 31.3016 75.1044 32.3877C74.0731 33.4195 73.5575 34.6686 73.5575 36.1349V63.8313C73.5575 65.3519 74.0731 66.6281 75.1044 67.6599C76.1356 68.6374 77.411 69.1262 78.9307 69.1262C80.3419 69.1262 81.563 68.6374 82.5943 67.6599C83.6797 66.6281 84.2225 65.3519 84.2225 63.8313V36.1349Z" fill="white"/>
<path d="M121.229 75.3172H113.902V36.7865C113.902 35.3203 113.305 34.0712 112.111 33.0394C110.971 31.9532 109.669 31.4102 108.203 31.4102C106.738 31.4102 105.408 31.9532 104.214 33.0394C103.02 34.0712 102.423 35.3203 102.423 36.7865V75.3172H95.0961V24.5675H99.9808L101.609 26.9299C102.315 25.9523 103.237 25.2464 104.377 24.8119C105.571 24.3231 106.847 24.0788 108.203 24.0788C109.994 24.0788 111.677 24.4318 113.251 25.1377C114.825 25.7894 116.182 26.6855 117.322 27.8259C118.516 28.9664 119.465 30.324 120.171 31.8989C120.876 33.4195 121.229 35.0487 121.229 36.7865V75.3172Z" fill="white"/>
<path d="M139.644 69.2891C140.403 69.2891 141.082 69.1262 141.679 68.8004C142.276 68.4202 142.71 67.9858 142.982 67.497L148.029 72.9548C147.106 74.041 145.885 74.8827 144.366 75.4801C142.9 76.1318 141.435 76.4576 139.969 76.4576C136.333 76.4576 133.511 75.3172 131.502 73.0363C129.549 70.7011 128.572 67.6599 128.572 63.9128V31.0029H123.931V24.5675H128.572V15.2811L135.899 12.8373V24.5675H145.587V31.0029H135.899V63.9128C135.899 67.497 137.147 69.2891 139.644 69.2891Z" fill="white"/>
<path d="M172.948 63.8313C172.948 65.5691 172.622 67.2255 171.971 68.8004C171.374 70.3209 170.506 71.6515 169.366 72.7919C168.28 73.9323 166.978 74.8284 165.458 75.4801C163.938 76.1318 162.31 76.4576 160.573 76.4576C158.837 76.4576 157.208 76.1318 155.689 75.4801C154.169 74.8284 152.839 73.9323 151.7 72.7919C150.614 71.6515 149.746 70.3209 149.094 68.8004C148.497 67.2255 148.199 65.5691 148.199 63.8313V36.1349C148.199 34.397 148.525 32.7678 149.176 31.2472C149.827 29.6724 150.723 28.3147 151.862 27.1742C153.002 26.0338 154.332 25.1377 155.852 24.4861C157.426 23.7801 159.108 23.4271 160.899 23.4271C162.582 23.4271 164.183 23.7529 165.702 24.4046C167.276 25.002 168.633 25.898 169.773 27.0928C170.913 28.2875 171.808 29.7538 172.46 31.4916C173.165 33.1751 173.518 35.0759 173.518 37.1938C173.518 40.6152 173.165 43.4934 172.46 45.8286C171.808 48.1638 170.75 50.2275 169.285 52.0196C167.819 53.7574 165.947 55.3594 163.667 56.8257C161.388 58.2377 158.674 59.7583 155.526 61.3875V63.8313C155.526 65.3519 155.987 66.6281 156.91 67.6599C157.833 68.6374 159.054 69.1262 160.573 69.1262C162.039 69.1262 163.233 68.6374 164.156 67.6599C165.133 66.6281 165.621 65.3519 165.621 63.8313V63.0167L172.948 60.5729V63.8313ZM166.191 37.6011C166.191 35.0487 165.648 33.2838 164.563 32.3062C163.531 31.2744 162.31 30.7585 160.899 30.7585C159.379 30.7585 158.104 31.3016 157.073 32.3877C156.042 33.4195 155.526 34.6686 155.526 36.1349V52.9971C157.751 51.911 159.542 50.7977 160.899 49.6572C162.31 48.5168 163.396 47.322 164.156 46.073C164.97 44.8239 165.512 43.5206 165.784 42.1629C166.055 40.7509 166.191 39.2303 166.191 37.6011Z" fill="white"/>
<path d="M202.959 75.3172H195.632V36.7865C195.632 35.3203 195.035 34.0712 193.841 33.0394C192.701 31.9532 191.399 31.4102 189.933 31.4102C188.468 31.4102 187.138 31.9532 185.944 33.0394C184.75 34.0712 184.153 35.3203 184.153 36.7865V75.3172H176.826V24.5675H181.711L183.339 26.9299C184.044 25.9523 184.967 25.2464 186.107 24.8119C187.301 24.3231 188.576 24.0788 189.933 24.0788C191.724 24.0788 193.407 24.4318 194.981 25.1377C196.555 25.7894 197.912 26.6855 199.051 27.8259C200.245 28.9664 201.195 30.324 201.901 31.8989C202.606 33.4195 202.959 35.0487 202.959 36.7865V75.3172Z" fill="white"/>
<path d="M232.527 63.0167C232.527 64.7545 232.228 66.4109 231.631 67.9858C231.034 69.5063 230.193 70.8369 229.108 71.9773C228.076 73.1178 226.828 74.0138 225.363 74.6655C223.897 75.3172 222.296 75.643 220.559 75.643C218.66 75.643 217.032 75.3443 215.675 74.747C214.372 74.1496 213.477 73.525 212.988 72.8734L211.36 75.3172H206.475V9.98616L213.802 7.54236V25.9523C214.128 25.3007 214.915 24.7304 216.163 24.2417C217.411 23.6986 218.85 23.4271 220.478 23.4271C222.215 23.4271 223.816 23.7801 225.281 24.4861C226.801 25.1377 228.076 26.0338 229.108 27.1742C230.193 28.3147 231.034 29.6724 231.631 31.2472C232.228 32.7678 232.527 34.397 232.527 36.1349V63.0167ZM219.501 30.7585C217.981 30.7585 216.652 31.3016 215.512 32.3877C214.372 33.4195 213.802 34.6686 213.802 36.1349V63.0167C213.802 64.5373 214.372 65.8135 215.512 66.8453C216.652 67.8228 217.981 68.3116 219.501 68.3116C220.966 68.3116 222.269 67.8228 223.409 66.8453C224.603 65.8135 225.2 64.5373 225.2 63.0167V36.1349C225.2 34.6686 224.603 33.4195 223.409 32.3877C222.269 31.3016 220.966 30.7585 219.501 30.7585Z" fill="white"/>
<path d="M260.805 75.3172H255.921L254.293 72.3846C253.695 73.4707 252.773 74.3397 251.525 74.9913C250.33 75.643 248.675 75.9688 246.558 75.9688C245.202 75.9688 243.845 75.6973 242.488 75.1542C241.185 74.6112 239.991 73.8509 238.906 72.8734C237.874 71.8415 237.006 70.5925 236.3 69.1262C235.649 67.6599 235.324 65.9764 235.324 64.0757C235.324 61.4146 235.649 59.0795 236.3 57.0701C236.952 55.0608 237.793 53.2686 238.824 51.6937C239.91 50.1188 241.104 48.734 242.406 47.5393C243.763 46.3445 245.12 45.2312 246.477 44.1994C247.834 43.1676 249.109 42.2172 250.303 41.3483C251.552 40.4794 252.61 39.5833 253.478 38.6601V36.1349C253.478 34.6686 253.098 33.4195 252.339 32.3877C251.633 31.3016 250.548 30.7585 249.082 30.7585C246.314 30.7585 244.577 31.9804 243.872 34.4242L237.603 30.1883C237.983 29.3737 238.526 28.5591 239.231 27.7445C239.937 26.9299 240.778 26.2239 241.755 25.6265C242.732 24.9748 243.818 24.4589 245.012 24.0788C246.26 23.6443 247.617 23.4271 249.082 23.4271C250.819 23.4271 252.393 23.7801 253.804 24.4861C255.269 25.1377 256.518 26.0338 257.549 27.1742C258.58 28.3147 259.367 29.6724 259.91 31.2472C260.507 32.7678 260.805 34.397 260.805 36.1349V75.3172ZM253.478 48.1095C252.556 48.7069 251.47 49.44 250.222 50.3089C248.974 51.1778 247.78 52.2368 246.64 53.4859C245.554 54.7349 244.604 56.174 243.79 57.8032C243.031 59.3781 242.651 61.1974 242.651 63.2611C242.651 64.7817 243.166 66.0579 244.197 67.0897C245.229 68.1215 246.504 68.6374 248.024 68.6374C248.729 68.6374 249.408 68.4745 250.059 68.1487C250.765 67.7685 251.362 67.3069 251.85 66.7639C252.339 66.1665 252.719 65.5148 252.99 64.8088C253.316 64.0485 253.478 63.2882 253.478 62.5279V48.1095Z" fill="white"/>
<path d="M289.84 62.5279C289.84 64.3201 289.568 66.0579 289.025 67.7414C288.537 69.4249 287.75 70.9183 286.665 72.2217C285.579 73.525 284.195 74.5569 282.513 75.3172C280.884 76.0775 278.93 76.4576 276.651 76.4576C274.806 76.4576 273.096 76.1318 271.522 75.4801C270.002 74.8827 268.673 74.041 267.533 72.9548C266.393 71.8687 265.497 70.5653 264.846 69.0447C264.249 67.4698 263.951 65.732 263.951 63.8313V60.3285L271.278 61.9577V63.8313C271.278 65.4062 271.82 66.6824 272.906 67.6599C273.991 68.6374 275.321 69.1262 276.895 69.1262C278.469 69.1262 279.772 68.6646 280.803 67.7414C281.834 66.7639 282.35 65.4605 282.35 63.8313C282.35 62.5822 282.16 61.4961 281.78 60.5729C281.454 59.5954 280.993 58.7265 280.396 57.9662C278.985 56.337 277.356 54.8435 275.511 53.4859C273.72 52.1282 272.01 50.6619 270.382 49.087C268.808 47.4578 267.451 45.6385 266.312 43.6292C265.226 41.6198 264.683 39.1489 264.683 36.2163C264.683 34.4242 264.982 32.7407 265.579 31.1658C266.176 29.5909 267.017 28.2332 268.103 27.0928C269.242 25.9523 270.572 25.0563 272.092 24.4046C273.612 23.7529 275.294 23.4271 277.139 23.4271C279.039 23.4271 280.721 23.7529 282.187 24.4046C283.652 25.0563 284.873 25.9523 285.85 27.0928C286.882 28.2332 287.641 29.5909 288.13 31.1658C288.673 32.6864 288.944 34.3427 288.944 36.1349V39.6376L281.861 38.0084V36.1349C281.861 34.7229 281.4 33.4738 280.477 32.3877C279.555 31.3016 278.361 30.7585 276.895 30.7585C275.321 30.7585 274.1 31.3287 273.232 32.4692C272.363 33.5553 271.929 34.8315 271.929 36.2978C271.929 37.9813 272.363 39.5019 273.232 40.8595C274.154 42.1629 275.267 43.4391 276.569 44.6882C277.872 45.8829 279.31 47.1048 280.884 48.3539C282.458 49.5486 283.897 50.852 285.199 52.264C286.502 53.6216 287.587 55.1422 288.456 56.8257C289.378 58.5092 289.84 60.41 289.84 62.5279Z" fill="white"/>
<path d="M317.406 63.8313C317.406 65.5691 317.081 67.2255 316.429 68.8004C315.832 70.3209 314.964 71.6515 313.824 72.7919C312.739 73.9323 311.436 74.8284 309.917 75.4801C308.397 76.1318 306.769 76.4576 305.032 76.4576C303.295 76.4576 301.667 76.1318 300.147 75.4801C298.627 74.8284 297.298 73.9323 296.158 72.7919C295.072 71.6515 294.204 70.3209 293.553 68.8004C292.956 67.2255 292.657 65.5691 292.657 63.8313V36.1349C292.657 34.397 292.983 32.7678 293.634 31.2472C294.285 29.6724 295.181 28.3147 296.321 27.1742C297.461 26.0338 298.79 25.1377 300.31 24.4861C301.884 23.7801 303.566 23.4271 305.357 23.4271C307.04 23.4271 308.641 23.7529 310.161 24.4046C311.735 25.002 313.092 25.898 314.231 27.0928C315.371 28.2875 316.267 29.7538 316.918 31.4916C317.624 33.1751 317.976 35.0759 317.976 37.1938C317.976 40.6152 317.624 43.4934 316.918 45.8286C316.267 48.1638 315.208 50.2275 313.743 52.0196C312.277 53.7574 310.405 55.3594 308.125 56.8257C305.846 58.2377 303.132 59.7583 299.984 61.3875V63.8313C299.984 65.3519 300.446 66.6281 301.368 67.6599C302.291 68.6374 303.512 69.1262 305.032 69.1262C306.497 69.1262 307.691 68.6374 308.614 67.6599C309.591 66.6281 310.079 65.3519 310.079 63.8313V63.0167L317.406 60.5729V63.8313ZM310.649 37.6011C310.649 35.0487 310.107 33.2838 309.021 32.3062C307.99 31.2744 306.769 30.7585 305.357 30.7585C303.838 30.7585 302.562 31.3016 301.531 32.3877C300.5 33.4195 299.984 34.6686 299.984 36.1349V52.9971C302.21 51.911 304.001 50.7977 305.357 49.6572C306.769 48.5168 307.854 47.322 308.614 46.073C309.428 44.8239 309.971 43.5206 310.242 42.1629C310.514 40.7509 310.649 39.2303 310.649 37.6011Z" fill="white"/>
</svg>
