<svg width="112" height="29" viewBox="0 0 112 29" fill="none" xmlns="http://www.w3.org/2000/svg">
<g clip-path="url(#clip0_1640_1924)">
<path d="M0 0.956044C0 0.428035 0.428035 0 0.956044 0H8.60439C9.13237 0 9.56044 0.428035 9.56044 0.956044V3.82418C9.56044 4.35218 9.13237 4.78022 8.60439 4.78022H0.956044C0.428036 4.78022 0 4.35218 0 3.82418V0.956044Z" fill="#031330"/>
<path d="M12.1099 0.956044C12.1099 0.428035 12.538 0 13.0659 0H20.7143C21.2423 0 21.6703 0.428035 21.6703 0.956044V3.82418C21.6703 4.35218 21.2423 4.78022 20.7143 4.78022H13.8626L9.56044 9.08242V15.1374L13.8626 19.4396H20.7143C21.2423 19.4396 21.6703 19.8676 21.6703 20.3956V28.044C21.6703 28.5719 21.2423 29 20.7143 29H13.0659C12.538 29 12.1099 28.5719 12.1099 28.044V21.1923L7.80769 16.8901H0.956044C0.428036 16.8901 0 16.462 0 15.9341V8.28571C0 7.75771 0.428035 7.32967 0.956044 7.32967H7.80769L12.1099 3.02747V0.956044Z" fill="#EC4D37"/>
<path d="M0.956044 19.4396C0.428035 19.4396 0 19.8676 0 20.3956V28.044C0 28.5719 0.428036 29 0.956044 29H8.60439C9.13237 29 9.56044 28.5719 9.56044 28.044V20.3956C9.56044 19.8676 9.13237 19.4396 8.60439 19.4396H0.956044Z" fill="#EC4D37"/>
<path d="M32.0147 24.5626C32.0147 25.1733 31.8905 25.7554 31.6422 26.3089C31.4131 26.8433 31.0979 27.3109 30.6968 27.7117C30.2957 28.1126 29.8181 28.4274 29.2643 28.6565C28.7295 28.8855 28.166 29 27.5739 29C26.9436 29 26.3515 28.8855 25.7976 28.6565C25.2628 28.4274 24.7949 28.1126 24.3937 27.7117C23.9927 27.3109 23.6775 26.8433 23.4483 26.3089C23.2191 25.7554 23.1045 25.1733 23.1045 24.5626V14.8289C23.1045 14.2181 23.2191 13.6455 23.4483 13.1111C23.6775 12.5576 23.9927 12.0805 24.3937 11.6797C24.7949 11.2789 25.2628 10.964 25.7976 10.7349C26.3515 10.4869 26.9436 10.3628 27.5739 10.3628C28.166 10.3628 28.7295 10.4869 29.2643 10.7349C29.8181 10.964 30.2957 11.2789 30.6968 11.6797C31.0979 12.0805 31.4131 12.5576 31.6422 13.1111C31.8905 13.6455 32.0147 14.2181 32.0147 14.8289V24.5626ZM29.4362 14.8289C29.4362 14.3136 29.2452 13.8746 28.8631 13.5119C28.5002 13.1302 28.0705 12.9393 27.5739 12.9393C27.0391 12.9393 26.5902 13.1302 26.2273 13.5119C25.8644 13.8746 25.683 14.3136 25.683 14.8289V24.5626C25.683 25.097 25.8644 25.5455 26.2273 25.9081C26.5902 26.2517 27.0391 26.4235 27.5739 26.4235C28.0705 26.4235 28.5002 26.2517 28.8631 25.9081C29.2452 25.5455 29.4362 25.097 29.4362 24.5626V14.8289Z" fill="#031330"/>
<path d="M42.4593 28.5992H39.8808V15.0579C39.8808 14.5425 39.6707 14.1036 39.2505 13.741C38.8494 13.3593 38.3911 13.1684 37.8754 13.1684C37.3597 13.1684 36.8917 13.3593 36.4715 13.741C36.0513 14.1036 35.8412 14.5425 35.8412 15.0579V28.5992H33.2627V10.7636H34.9817L35.5546 11.5938C35.803 11.2503 36.1277 11.0022 36.5288 10.8495C36.949 10.6777 37.3978 10.5919 37.8754 10.5919C38.5056 10.5919 39.0977 10.7159 39.6517 10.964C40.2056 11.1931 40.683 11.5079 41.0842 11.9087C41.5043 12.3095 41.8386 12.7867 42.0869 13.3402C42.3352 13.8746 42.4593 14.4471 42.4593 15.0579V28.5992Z" fill="#031330"/>
<path d="M48.9396 26.4807C49.207 26.4807 49.4457 26.4235 49.6558 26.3089C49.866 26.1753 50.0187 26.0226 50.1143 25.8509L51.8906 27.7689C51.5659 28.1507 51.1361 28.4465 50.6013 28.6565C50.0856 28.8855 49.5699 29 49.0542 29C47.7745 29 46.7813 28.5992 46.0746 27.7976C45.387 26.9769 45.0432 25.9081 45.0432 24.5912V13.0252H43.4102V10.7636H45.0432V7.49994L47.6217 6.64108V10.7636H51.0311V13.0252H47.6217V24.5912C47.6217 25.8509 48.061 26.4807 48.9396 26.4807Z" fill="#031330"/>
<path d="M60.6601 24.5626C60.6601 25.1733 60.5455 25.7554 60.3163 26.3089C60.1062 26.8433 59.8006 27.3109 59.3995 27.7117C59.0174 28.1126 58.5591 28.4274 58.0243 28.6565C57.4894 28.8855 56.9164 29 56.3052 29C55.6941 29 55.1211 28.8855 54.5863 28.6565C54.0514 28.4274 53.5835 28.1126 53.1824 27.7117C52.8004 27.3109 52.4948 26.8433 52.2656 26.3089C52.0555 25.7554 51.9504 25.1733 51.9504 24.5626V14.8289C51.9504 14.2181 52.065 13.6455 52.2942 13.1111C52.5234 12.5576 52.8386 12.0805 53.2397 11.6797C53.6408 11.2789 54.1088 10.964 54.6435 10.7349C55.1975 10.4869 55.7896 10.3628 56.4199 10.3628C57.012 10.3628 57.5754 10.4773 58.1102 10.7063C58.6641 10.9163 59.1416 11.2312 59.5427 11.6511C59.9438 12.0709 60.259 12.5862 60.4881 13.197C60.7365 13.7887 60.8606 14.4567 60.8606 15.201C60.8606 16.4034 60.7365 17.415 60.4881 18.2357C60.259 19.0564 59.8866 19.7816 59.3708 20.4115C58.8551 21.0221 58.1962 21.5852 57.394 22.1006C56.5918 22.5967 55.6368 23.1312 54.529 23.7037V24.5626C54.529 25.097 54.6913 25.5455 55.016 25.9081C55.3407 26.2517 55.7705 26.4235 56.3052 26.4235C56.8209 26.4235 57.2412 26.2517 57.5658 25.9081C57.9097 25.5455 58.0815 25.097 58.0815 24.5626V24.2763L60.6601 23.4174V24.5626ZM58.2822 15.3442C58.2822 14.4471 58.0911 13.8269 57.7091 13.4833C57.3462 13.1207 56.9164 12.9393 56.4199 12.9393C55.885 12.9393 55.4362 13.1302 55.0733 13.5119C54.7104 13.8746 54.529 14.3136 54.529 14.8289V20.755C55.312 20.3732 55.9423 19.982 56.4199 19.5812C56.9164 19.1804 57.2985 18.7605 57.5658 18.3216C57.8523 17.8826 58.0434 17.4245 58.1388 16.9474C58.2344 16.4511 58.2822 15.9168 58.2822 15.3442Z" fill="#031330"/>
<path d="M71.2214 28.5992H68.6428V15.0579C68.6428 14.5425 68.4327 14.1036 68.0125 13.741C67.6114 13.3593 67.153 13.1684 66.6373 13.1684C66.1216 13.1684 65.6537 13.3593 65.2334 13.741C64.8133 14.1036 64.6032 14.5425 64.6032 15.0579V28.5992H62.0247V10.7636H63.7437L64.3167 11.5938C64.565 11.2503 64.8897 11.0022 65.2908 10.8495C65.711 10.6777 66.1598 10.5919 66.6373 10.5919C67.2677 10.5919 67.8598 10.7159 68.4136 10.964C68.9675 11.1931 69.445 11.5079 69.8461 11.9087C70.2664 12.3095 70.6006 12.7867 70.8489 13.3402C71.0971 13.8746 71.2214 14.4471 71.2214 15.0579V28.5992Z" fill="#031330"/>
<path d="M81.627 24.2763C81.627 24.887 81.5218 25.4692 81.3115 26.0226C81.1012 26.557 80.8056 27.0247 80.4232 27.4254C80.0607 27.8262 79.6212 28.1412 79.1055 28.3702C78.5898 28.5992 78.0264 28.7137 77.4152 28.7137C76.7467 28.7137 76.1738 28.6087 75.6962 28.3988C75.2378 28.1889 74.9227 27.9694 74.7508 27.7403L74.1778 28.5992H72.4587V5.63907L75.0373 4.78022V11.2502C75.1518 11.0213 75.4288 10.8208 75.8681 10.6491C76.3074 10.4582 76.8136 10.3628 77.3866 10.3628C77.9978 10.3628 78.5612 10.4868 79.0769 10.7349C79.6118 10.964 80.0607 11.2789 80.4232 11.6797C80.8056 12.0805 81.1012 12.5576 81.3115 13.1111C81.5218 13.6455 81.627 14.2181 81.627 14.8289V24.2763ZM77.0428 12.9393C76.508 12.9393 76.04 13.1302 75.6389 13.5119C75.2378 13.8746 75.0373 14.3136 75.0373 14.8289V24.2763C75.0373 24.8107 75.2378 25.2592 75.6389 25.6218C76.04 25.9654 76.508 26.1371 77.0428 26.1371C77.5585 26.1371 78.0168 25.9654 78.418 25.6218C78.8382 25.2592 79.0482 24.8107 79.0482 24.2763V14.8289C79.0482 14.3136 78.8382 13.8746 78.418 13.5119C78.0168 13.1302 77.5585 12.9393 77.0428 12.9393Z" fill="#031330"/>
<path d="M91.5788 28.5992H89.8595L89.2867 27.5686C89.0763 27.9503 88.7521 28.2557 88.3123 28.4847C87.8924 28.7138 87.31 28.8282 86.5651 28.8282C86.0871 28.8282 85.6099 28.7328 85.1327 28.542C84.6737 28.3511 84.2539 28.0839 83.8715 27.7403C83.509 27.3778 83.203 26.9388 82.9553 26.4235C82.7258 25.9081 82.6111 25.3165 82.6111 24.6485C82.6111 23.7133 82.7258 22.8926 82.9553 22.1864C83.1839 21.4802 83.4803 20.8504 83.8428 20.2969C84.2252 19.7434 84.6451 19.2567 85.104 18.8369C85.5812 18.417 86.0584 18.0257 86.5364 17.6631C87.0137 17.3004 87.4622 16.9664 87.8829 16.6611C88.3218 16.3557 88.6947 16.0408 88.9998 15.7163V14.8289C88.9998 14.3136 88.866 13.8746 88.5991 13.5119C88.3505 13.1302 87.9689 12.9393 87.4526 12.9393C86.4791 12.9393 85.868 13.3688 85.6194 14.2277L83.4134 12.739C83.5472 12.4527 83.7376 12.1664 83.9862 11.8801C84.2348 11.5938 84.5303 11.3457 84.8745 11.1358C85.2179 10.9067 85.6003 10.7255 86.0202 10.5919C86.4599 10.4391 86.9372 10.3628 87.4526 10.3628C88.0645 10.3628 88.6182 10.4869 89.1146 10.7349C89.63 10.964 90.0698 11.2789 90.4323 11.6797C90.7956 12.0805 91.0721 12.5576 91.2633 13.1111C91.4736 13.6455 91.5788 14.2181 91.5788 14.8289V28.5992ZM88.9998 19.0372C88.6756 19.2472 88.2932 19.5049 87.8542 19.8102C87.4144 20.1156 86.9945 20.4878 86.5938 20.9268C86.2114 21.3658 85.8776 21.8715 85.5908 22.4441C85.3231 22.9976 85.1892 23.6369 85.1892 24.3622C85.1892 24.8966 85.3709 25.3451 85.7342 25.7077C86.0967 26.0704 86.546 26.2517 87.0806 26.2517C87.3292 26.2517 87.5674 26.1944 87.7968 26.0799C88.0454 25.9463 88.2549 25.784 88.427 25.5932C88.5991 25.3833 88.7329 25.1542 88.8285 24.9062C88.9425 24.6389 88.9998 24.3717 88.9998 24.1045V19.0372Z" fill="#031330"/>
<path d="M101.796 24.1045C101.796 24.7344 101.701 25.3451 101.51 25.9368C101.338 26.5284 101.061 27.0533 100.679 27.5113C100.297 27.9694 99.8094 28.332 99.2175 28.5992C98.6446 28.8664 97.9571 29 97.1548 29C96.5055 29 95.904 28.8855 95.3495 28.6565C94.8149 28.4465 94.3472 28.1507 93.9457 27.7689C93.545 27.3872 93.2294 26.9292 93.0008 26.3948C92.7905 25.8413 92.6853 25.2306 92.6853 24.5626V23.3315L95.2642 23.9041V24.5626C95.2642 25.1161 95.4546 25.5646 95.8371 25.9081C96.2187 26.2517 96.6871 26.4235 97.2409 26.4235C97.7946 26.4235 98.2527 26.2612 98.616 25.9368C98.9785 25.5932 99.1601 25.1351 99.1601 24.5626C99.1601 24.1236 99.0932 23.7419 98.9593 23.4174C98.8454 23.0739 98.6829 22.7685 98.4726 22.5013C97.9762 21.9287 97.4034 21.4039 96.7533 20.9268C96.1231 20.4496 95.5216 19.9343 94.9487 19.3808C94.395 18.8083 93.917 18.1688 93.5163 17.4627C93.1339 16.7565 92.9434 15.8881 92.9434 14.8575C92.9434 14.2277 93.0486 13.636 93.2581 13.0825C93.4685 12.529 93.7648 12.0519 94.1465 11.6511C94.5472 11.2503 95.0157 10.9354 95.5502 10.7063C96.0848 10.4773 96.6776 10.3628 97.3269 10.3628C97.9953 10.3628 98.5873 10.4773 99.1028 10.7063C99.619 10.9354 100.048 11.2503 100.393 11.6511C100.755 12.0519 101.023 12.529 101.194 13.0825C101.385 13.6169 101.481 14.199 101.481 14.8289V16.0599L98.988 15.4873V14.8289C98.988 14.3326 98.8263 13.8936 98.5012 13.5119C98.177 13.1302 97.7563 12.9393 97.2409 12.9393C96.6871 12.9393 96.2569 13.1398 95.9518 13.5405C95.6459 13.9223 95.4929 14.3708 95.4929 14.8861C95.4929 15.4778 95.6459 16.0122 95.9518 16.4893C96.276 16.9474 96.668 17.3959 97.1261 17.8349C97.5842 18.2547 98.0909 18.6842 98.6446 19.1231C99.1984 19.5431 99.7043 20.0011 100.163 20.4974C100.621 20.9745 101.004 21.5089 101.309 22.1006C101.634 22.6922 101.796 23.3602 101.796 24.1045Z" fill="#031330"/>
<path d="M111.497 24.5626C111.497 25.1733 111.382 25.7554 111.154 26.3089C110.943 26.8433 110.637 27.3109 110.237 27.7117C109.855 28.1126 109.396 28.4274 108.861 28.6565C108.327 28.8855 107.753 29 107.142 29C106.531 29 105.958 28.8855 105.424 28.6565C104.888 28.4274 104.421 28.1126 104.019 27.7117C103.637 27.3109 103.331 26.8433 103.103 26.3089C102.893 25.7554 102.787 25.1733 102.787 24.5626V14.8289C102.787 14.2181 102.902 13.6455 103.132 13.1111C103.36 12.5576 103.676 12.0805 104.076 11.6797C104.478 11.2789 104.946 10.964 105.48 10.7349C106.035 10.4869 106.627 10.3628 107.257 10.3628C107.849 10.3628 108.412 10.4773 108.947 10.7063C109.501 10.9163 109.978 11.2312 110.38 11.6511C110.781 12.0709 111.096 12.5862 111.326 13.197C111.573 13.7887 111.698 14.4567 111.698 15.201C111.698 16.4034 111.573 17.415 111.326 18.2357C111.096 19.0564 110.723 19.7816 110.208 20.4115C109.692 21.0221 109.034 21.5852 108.231 22.1006C107.429 22.5967 106.474 23.1312 105.366 23.7037V24.5626C105.366 25.097 105.528 25.5455 105.853 25.9081C106.178 26.2517 106.608 26.4235 107.142 26.4235C107.658 26.4235 108.078 26.2517 108.403 25.9081C108.747 25.5455 108.919 25.097 108.919 24.5626V24.2763L111.497 23.4174V24.5626ZM109.12 15.3442C109.12 14.4471 108.928 13.8269 108.546 13.4833C108.183 13.1207 107.753 12.9393 107.257 12.9393C106.722 12.9393 106.273 13.1302 105.91 13.5119C105.547 13.8746 105.366 14.3136 105.366 14.8289V20.755C106.149 20.3732 106.78 19.982 107.257 19.5812C107.753 19.1804 108.136 18.7605 108.403 18.3216C108.689 17.8826 108.881 17.4245 108.976 16.9474C109.072 16.4511 109.12 15.9168 109.12 15.3442Z" fill="#031330"/>
</g>
<defs>
<clipPath id="clip0_1640_1924">
<rect width="111.698" height="29" fill="white"/>
</clipPath>
</defs>
</svg>
